<svg xmlns="http://www.w3.org/2000/svg" xmlns:xlink="http://www.w3.org/1999/xlink" version="1.1" x="0px" y="0px" viewBox="0 0 100 125" enable-background="new 0 0 100 100" xml:space="preserve"><g><path d="M50.4,87.4c-13.3,0-22.5-4.6-27.4-13.8c-3.9-7.2-4.4-16-4.4-23.6c0-12.7,10.8-37.4,30.5-37.4c0.4,0,0.9,0,1.3,0   c8.7,0.5,17,5.8,23.4,14.9c5.7,8.3,8.3,17.2,8.3,22.4c0,6.1-0.5,15.1-4.4,22.7C72.8,82.4,63.5,87.4,50.4,87.4z M49.1,15.3   c-17.3,0-27.8,22.5-27.8,34.7c0,17.1,3.5,34.6,29.1,34.6c29.1,0,29.1-26.1,29.1-34.6c0-4.6-2.5-13.1-7.8-20.9   C68.2,24.3,60.9,16,50.3,15.4C49.9,15.3,49.5,15.3,49.1,15.3z"/><path fill-rule="evenodd" clip-rule="evenodd" d="M86.8,27.6C76.6,17,58.2,14,51,13.3c0.7-0.2,1.1-0.3,1.1-0.3s-0.8,0-2.3,0.1   C48.6,13,47.9,13,47.9,13s0.3,0.1,0.9,0.2c-7.4,0.7-25.5,3.5-35.7,14c-14.3,14.9-7.9,23.8,5.1,32.4c13,8.5,2.9-17.6,11.7-31   c6.6-10,15.8-13.8,20-15.1C54,14.9,63.4,18.8,70.1,29c8.8,13.4-1.3,39.5,11.7,31C94.8,51.5,101.2,42.5,86.8,27.6z"/><path d="M60.2,61.6c0,4.8-9.3,10.6-11.6,10.6c-2.3,0-11.6-5.8-11.6-10.6s5.2-8.7,11.6-8.7S60.2,56.8,60.2,61.6z"/><path d="M63.6,76c0,0-0.4,0.3-1,0.7c-0.3,0.2-0.8,0.4-1.3,0.6c-0.5,0.2-1.1,0.3-1.7,0.5c-0.6,0.2-1.3,0.3-2.1,0.4   c-0.4,0.1-0.7,0.1-1.1,0.2c-0.4,0-0.8,0.1-1.2,0.1c-0.8,0.1-1.6,0.1-2.5,0.1c-0.9,0.1-1.7,0-2.6,0c-0.8,0-1.8,0-2.6-0.1   c-0.8,0-1.7-0.1-2.5-0.1c-0.8-0.1-1.6-0.1-2.3-0.2c-0.4,0-0.7-0.1-1.1-0.2c-0.3-0.1-0.7-0.1-1-0.2c-0.3-0.1-0.6-0.1-0.9-0.2   c-0.3-0.1-0.6-0.1-0.8-0.2c-0.5-0.2-0.9-0.3-1.3-0.5c-0.7-0.3-1.1-0.6-1.1-0.6s0.1,0.5,0.7,1.1c0.3,0.3,0.6,0.7,1.1,1   c0.5,0.4,1,0.7,1.7,1c0.6,0.3,1.4,0.6,2.1,0.9c0.8,0.3,1.6,0.5,2.5,0.6c0.4,0.1,0.9,0.1,1.3,0.2c0.5,0,0.9,0.1,1.4,0.1   c1,0.1,1.8,0.1,2.8,0.1c1.9,0,3.7-0.2,5.5-0.6c0.9-0.2,1.7-0.4,2.5-0.7c0.8-0.3,1.5-0.6,2.1-0.9c0.6-0.3,1.2-0.7,1.6-1   c0.5-0.3,0.8-0.7,1.1-1C63.4,76.5,63.6,76,63.6,76z"/><g><path d="M38.4,47.6c-4,0-7.2-4.1-7.2-9.1s3.2-9.1,7.2-9.1s7.2,4.1,7.2,9.1S42.4,47.6,38.4,47.6z M38.4,30.6c-3.3,0-6,3.5-6,7.9    s2.7,7.9,6,7.9c3.3,0,6-3.5,6-7.9S41.7,30.6,38.4,30.6z"/><path d="M60.5,47.3c-4,0-7.2-4.1-7.2-9.1c0-5,3.2-9.1,7.2-9.1s7.2,4.1,7.2,9.1C67.7,43.2,64.5,47.3,60.5,47.3z M60.5,30.3    c-3.3,0-6,3.5-6,7.9c0,4.4,2.7,7.9,6,7.9c3.3,0,6-3.5,6-7.9C66.5,33.8,63.8,30.3,60.5,30.3z"/><g><path d="M38.2,38.4c-1.9,0-3.5,1.6-3.5,3.5v0c0,1.9,1.6,3.5,3.5,3.5s3.5-1.6,3.5-3.5v0C41.7,40,40.1,38.4,38.2,38.4z M37.1,40.5     c-0.4,0.5-0.9,0.6-1.2,0.4c-0.3-0.2-0.2-0.8,0.2-1.2c0.4-0.5,0.9-0.6,1.2-0.4C37.5,39.5,37.5,40.1,37.1,40.5z"/><path d="M60.5,38.4c-1.9,0-3.5,1.6-3.5,3.5v0c0,1.9,1.6,3.5,3.5,3.5c1.9,0,3.5-1.6,3.5-3.5v0C64,40,62.4,38.4,60.5,38.4z      M59.3,40.5c-0.4,0.5-0.9,0.6-1.2,0.4c-0.3-0.2-0.2-0.8,0.2-1.2c0.4-0.5,0.9-0.6,1.2-0.4C59.8,39.5,59.7,40.1,59.3,40.5z"/></g></g></g><text x="0" y="115" fill="#000000" font-size="5px" font-weight="bold" font-family="'Helvetica Neue', Helvetica, Arial-Unicode, Arial, Sans-serif">Created by Maurício Brito</text><text x="0" y="120" fill="#000000" font-size="5px" font-weight="bold" font-family="'Helvetica Neue', Helvetica, Arial-Unicode, Arial, Sans-serif">from the Noun Project</text></svg>