<?xml version="1.0" encoding="UTF-8" standalone="no"?>
<svg
   version="1.1"
   x="0px"
   y="0px"
   viewBox="0 0 96.061996 83.233887"
   enable-background="new 0 0 100 100"
   xml:space="preserve"
   id="svg11"
   sodipodi:docname="sam.svg"
   inkscape:version="1.4.2 (ebf0e94, 2025-05-08)"
   width="96.061996"
   height="83.233887"
   xmlns:inkscape="http://www.inkscape.org/namespaces/inkscape"
   xmlns:sodipodi="http://sodipodi.sourceforge.net/DTD/sodipodi-0.dtd"
   xmlns="http://www.w3.org/2000/svg"
   xmlns:svg="http://www.w3.org/2000/svg"><defs
     id="defs11" /><sodipodi:namedview
     id="namedview11"
     pagecolor="#ffffff"
     bordercolor="#666666"
     borderopacity="1.0"
     inkscape:showpageshadow="2"
     inkscape:pageopacity="0.0"
     inkscape:pagecheckerboard="0"
     inkscape:deskcolor="#d1d1d1"
     inkscape:zoom="6.704"
     inkscape:cx="48.105609"
     inkscape:cy="55.48926"
     inkscape:window-width="1920"
     inkscape:window-height="1040"
     inkscape:window-x="1920"
     inkscape:window-y="20"
     inkscape:window-maximized="1"
     inkscape:current-layer="svg11" /><rect
     style="fill:#ffffff;fill-opacity:1;stroke:none;stroke-width:3.77953"
     id="rect11"
     width="96.061996"
     height="83.233887"
     x="0"
     y="0" /><g
     id="g10"
     transform="translate(-1.9391408,-7.0107398)"><path
       d="M 50.4,87.4 C 37.1,87.4 27.9,82.8 23,73.6 19.1,66.4 18.6,57.6 18.6,50 c 0,-12.7 10.8,-37.4 30.5,-37.4 0.4,0 0.9,0 1.3,0 8.7,0.5 17,5.8 23.4,14.9 5.7,8.3 8.3,17.2 8.3,22.4 0,6.1 -0.5,15.1 -4.4,22.7 -4.9,9.8 -14.2,14.8 -27.3,14.8 z M 49.1,15.3 C 31.8,15.3 21.3,37.8 21.3,50 21.3,67.1 24.8,84.6 50.4,84.6 79.5,84.6 79.5,58.5 79.5,50 79.5,45.4 77,36.9 71.7,29.1 68.2,24.3 60.9,16 50.3,15.4 49.9,15.3 49.5,15.3 49.1,15.3 Z"
       id="path1" /><path
       fill-rule="evenodd"
       clip-rule="evenodd"
       d="M 86.8,27.6 C 76.6,17 58.2,14 51,13.3 51.7,13.1 52.1,13 52.1,13 c 0,0 -0.8,0 -2.3,0.1 C 48.6,13 47.9,13 47.9,13 c 0,0 0.3,0.1 0.9,0.2 -7.4,0.7 -25.5,3.5 -35.7,14 -14.3,14.9 -7.9,23.8 5.1,32.4 13,8.5 2.9,-17.6 11.7,-31 6.6,-10 15.8,-13.8 20,-15.1 4.1,1.4 13.5,5.3 20.2,15.5 8.8,13.4 -1.3,39.5 11.7,31 13,-8.5 19.4,-17.5 5,-32.4 z"
       id="path2" /><path
       d="m 60.2,61.6 c 0,4.8 -9.3,10.6 -11.6,10.6 -2.3,0 -11.6,-5.8 -11.6,-10.6 0,-4.8 5.2,-8.7 11.6,-8.7 6.4,0 11.6,3.9 11.6,8.7 z"
       id="path3" /><path
       d="m 63.6,76 c 0,0 -0.4,0.3 -1,0.7 -0.3,0.2 -0.8,0.4 -1.3,0.6 -0.5,0.2 -1.1,0.3 -1.7,0.5 -0.6,0.2 -1.3,0.3 -2.1,0.4 -0.4,0.1 -0.7,0.1 -1.1,0.2 -0.4,0 -0.8,0.1 -1.2,0.1 -0.8,0.1 -1.6,0.1 -2.5,0.1 -0.9,0.1 -1.7,0 -2.6,0 -0.8,0 -1.8,0 -2.6,-0.1 -0.8,0 -1.7,-0.1 -2.5,-0.1 -0.8,-0.1 -1.6,-0.1 -2.3,-0.2 -0.4,0 -0.7,-0.1 -1.1,-0.2 -0.3,-0.1 -0.7,-0.1 -1,-0.2 -0.3,-0.1 -0.6,-0.1 -0.9,-0.2 -0.3,-0.1 -0.6,-0.1 -0.8,-0.2 -0.5,-0.2 -0.9,-0.3 -1.3,-0.5 -0.7,-0.3 -1.1,-0.6 -1.1,-0.6 0,0 0.1,0.5 0.7,1.1 0.3,0.3 0.6,0.7 1.1,1 0.5,0.4 1,0.7 1.7,1 0.6,0.3 1.4,0.6 2.1,0.9 0.8,0.3 1.6,0.5 2.5,0.6 0.4,0.1 0.9,0.1 1.3,0.2 0.5,0 0.9,0.1 1.4,0.1 1,0.1 1.8,0.1 2.8,0.1 1.9,0 3.7,-0.2 5.5,-0.6 0.9,-0.2 1.7,-0.4 2.5,-0.7 0.8,-0.3 1.5,-0.6 2.1,-0.9 0.6,-0.3 1.2,-0.7 1.6,-1 0.5,-0.3 0.8,-0.7 1.1,-1 0.5,-0.6 0.7,-1.1 0.7,-1.1 z"
       id="path4" /><g
       id="g9"><path
         d="m 38.4,47.6 c -4,0 -7.2,-4.1 -7.2,-9.1 0,-5 3.2,-9.1 7.2,-9.1 4,0 7.2,4.1 7.2,9.1 0,5 -3.2,9.1 -7.2,9.1 z m 0,-17 c -3.3,0 -6,3.5 -6,7.9 0,4.4 2.7,7.9 6,7.9 3.3,0 6,-3.5 6,-7.9 0,-4.4 -2.7,-7.9 -6,-7.9 z"
         id="path5" /><path
         d="m 60.5,47.3 c -4,0 -7.2,-4.1 -7.2,-9.1 0,-5 3.2,-9.1 7.2,-9.1 4,0 7.2,4.1 7.2,9.1 0,5 -3.2,9.1 -7.2,9.1 z m 0,-17 c -3.3,0 -6,3.5 -6,7.9 0,4.4 2.7,7.9 6,7.9 3.3,0 6,-3.5 6,-7.9 0,-4.4 -2.7,-7.9 -6,-7.9 z"
         id="path6" /><g
         id="g8"><path
           d="m 38.2,38.4 c -1.9,0 -3.5,1.6 -3.5,3.5 v 0 c 0,1.9 1.6,3.5 3.5,3.5 1.9,0 3.5,-1.6 3.5,-3.5 v 0 c 0,-1.9 -1.6,-3.5 -3.5,-3.5 z m -1.1,2.1 c -0.4,0.5 -0.9,0.6 -1.2,0.4 -0.3,-0.2 -0.2,-0.8 0.2,-1.2 0.4,-0.5 0.9,-0.6 1.2,-0.4 0.2,0.2 0.2,0.8 -0.2,1.2 z"
           id="path7" /><path
           d="M 60.5,38.4 C 58.6,38.4 57,40 57,41.9 v 0 c 0,1.9 1.6,3.5 3.5,3.5 1.9,0 3.5,-1.6 3.5,-3.5 v 0 C 64,40 62.4,38.4 60.5,38.4 Z m -1.2,2.1 c -0.4,0.5 -0.9,0.6 -1.2,0.4 -0.3,-0.2 -0.2,-0.8 0.2,-1.2 0.4,-0.5 0.9,-0.6 1.2,-0.4 0.3,0.2 0.2,0.8 -0.2,1.2 z"
           id="path8" /></g></g></g></svg>
